# xmcd
#
# Track frame offsets:
#	150
#	22614
#	37030
#	52081
#	67034
#	86242
#	105142
#	119165
#	133720
#	147439
#
# Disc length: 2154 seconds
#
# Revision: 0
# Processed by: cddbd v1.5.1PL2 Copyright (c) Steve Scherf et al.
# Submitted via: dBpowerAMP V4.0
#
DISCID=8f08680a
DTITLE=Various Artist - Country Slow Dancin'
DYEAR=1999
DGENRE=Country
TTITLE0=Eddie Rabbit - Suspicions
TTITLE1=Lynn Anderson - Cry
TTITLE2=Johnny Rodriguez - Desperado
TTITLE3=Eddy Raven - Castaway Heart
TTITLE4=Exile - Yet
TTITLE5=Crystal Gayle - It Had To Be You
TTITLE6=Michael Johnson - Bluer Than Blue
TTITLE7=Mickey Gilley - You Don't Know Me
TTITLE8=Gatlin Brothers - Love Is A Many Splendored Thing
TTITLE9=Roy Clark - The Tips Of My Fingers
EXTD=Platinum Disc 9351
EXTT0=
EXTT1=
EXTT2=
EXTT3=
EXTT4=
EXTT5=
EXTT6=
EXTT7=
EXTT8=
EXTT9=
PLAYORDER=
